<?xml version="1.0" encoding="UTF-8" standalone="no"?>
<!-- Created with Inkscape (http://www.inkscape.org/) -->
<svg
   xmlns:dc="http://purl.org/dc/elements/1.1/"
   xmlns:cc="http://web.resource.org/cc/"
   xmlns:rdf="http://www.w3.org/1999/02/22-rdf-syntax-ns#"
   xmlns:svg="http://www.w3.org/2000/svg"
   xmlns="http://www.w3.org/2000/svg"
   xmlns:xlink="http://www.w3.org/1999/xlink"
   xmlns:sodipodi="http://sodipodi.sourceforge.net/DTD/sodipodi-0.dtd"
   xmlns:inkscape="http://www.inkscape.org/namespaces/inkscape"
   width="588.93213"
   height="577.5061"
   id="svg2"
   sodipodi:version="0.32"
   inkscape:version="0.45.1"
   version="1.0"
   sodipodi:docbase="/Users/johnolsen/Desktop"
   sodipodi:docname="Gioppino_Soccer_Ball.svg"
   inkscape:output_extension="org.inkscape.output.svg.inkscape"
   inkscape:export-filename="/home/gioppo/Disegni/soccerball.png"
   inkscape:export-xdpi="30.559999"
   inkscape:export-ydpi="30.559999">
  <defs
     id="defs4">
    <linearGradient
       id="linearGradient11897">
      <stop
         id="stop11899"
         offset="0"
         style="stop-color:#6e6e6e;stop-opacity:1;" />
      <stop
         id="stop11901"
         offset="1"
         style="stop-color:#000000;stop-opacity:1" />
    </linearGradient>
    <linearGradient
       id="linearGradient4110">
      <stop
         style="stop-color:#6e6e6e;stop-opacity:1;"
         offset="0"
         id="stop4112" />
      <stop
         style="stop-color:#280b0b;stop-opacity:1;"
         offset="1"
         id="stop4114" />
    </linearGradient>
    <radialGradient
       inkscape:collect="always"
       xlink:href="#linearGradient4110"
       id="radialGradient4119"
       cx="202.35063"
       cy="537.82739"
       fx="202.35063"
       fy="537.82739"
       r="90.602394"
       gradientTransform="matrix(0.3010308,1.7058415,-1.1092059,0.1957422,725.55618,94.306955)"
       gradientUnits="userSpaceOnUse" />
    <radialGradient
       inkscape:collect="always"
       xlink:href="#linearGradient4110"
       id="radialGradient4121"
       cx="386.63589"
       cy="347.99316"
       fx="386.63589"
       fy="347.99316"
       r="95.706879"
       gradientTransform="matrix(1,0,0,0.5888612,0,165.28985)"
       gradientUnits="userSpaceOnUse" />
    <radialGradient
       inkscape:collect="always"
       xlink:href="#linearGradient4110"
       id="radialGradient9949"
       cx="623.69739"
       cy="555.8739"
       fx="623.69739"
       fy="555.8739"
       r="16.340214"
       gradientTransform="matrix(1,0,0,4.1833691,0,-1790.2064)"
       gradientUnits="userSpaceOnUse" />
    <radialGradient
       inkscape:collect="always"
       xlink:href="#linearGradient11897"
       id="radialGradient10926"
       cx="596.61621"
       cy="686.89435"
       fx="596.61621"
       fy="686.89435"
       r="86.214287"
       gradientTransform="matrix(1.1267606,1.6740661,-0.9648536,0.6494131,472.65171,-821.06242)"
       gradientUnits="userSpaceOnUse" />
    <radialGradient
       inkscape:collect="always"
       xlink:href="#linearGradient4110"
       id="radialGradient12874"
       cx="549.01794"
       cy="815.95392"
       fx="549.01794"
       fy="815.95392"
       r="54.543159"
       gradientTransform="matrix(1,0,0,0.7016055,0,252.71301)"
       gradientUnits="userSpaceOnUse" />
    <radialGradient
       inkscape:collect="always"
       xlink:href="#linearGradient4110"
       id="radialGradient12880"
       cx="235.36554"
       cy="828.6134"
       fx="235.36554"
       fy="828.6134"
       r="291"
       gradientUnits="userSpaceOnUse"
       gradientTransform="matrix(0.1625329,7.0997337e-2,-4.6337377e-2,0.1060793,235.50659,724.0043)" />
    <radialGradient
       inkscape:collect="always"
       xlink:href="#linearGradient4110"
       id="radialGradient12888"
       cx="232.33508"
       cy="819.39008"
       fx="232.33508"
       fy="819.39008"
       r="91.918808"
       gradientTransform="matrix(0.2690842,0.7782121,-0.7914248,0.2736555,818.30295,428.62765)"
       gradientUnits="userSpaceOnUse" />
    <radialGradient
       inkscape:collect="always"
       xlink:href="#linearGradient4110"
       id="radialGradient12902"
       cx="77.14286"
       cy="694.38068"
       fx="77.14286"
       fy="694.38068"
       r="11.214286"
       gradientTransform="matrix(0.9363095,1.1464893,-2.7478501,2.2441028,1912.9672,-967.19997)"
       gradientUnits="userSpaceOnUse" />
  </defs>
  <sodipodi:namedview
     id="base"
     pagecolor="#ffffff"
     bordercolor="#666666"
     borderopacity="1.0"
     inkscape:pageopacity="0.0"
     inkscape:pageshadow="2"
     inkscape:zoom="0.49497475"
     inkscape:cx="295.36131"
     inkscape:cy="446.68129"
     inkscape:document-units="px"
     inkscape:current-layer="layer2"
     inkscape:window-width="1152"
     inkscape:window-height="821"
     inkscape:window-x="0"
     inkscape:window-y="22" />
  <metadata
     id="metadata7">
    <rdf:RDF>
      <cc:Work
         rdf:about="">
        <dc:format>image/svg+xml</dc:format>
        <dc:type
           rdf:resource="http://purl.org/dc/dcmitype/StillImage" />
      </cc:Work>
    </rdf:RDF>
  </metadata>
  <g
     inkscape:groupmode="layer"
     id="layer2"
     inkscape:label="palla"
     style="display:inline"
     transform="translate(-59.819668,-335.04035)">
    <path
       style="fill:url(#radialGradient4119);fill-opacity:1;fill-rule:evenodd;stroke:#000000;stroke-width:1px;stroke-linecap:butt;stroke-linejoin:miter;stroke-opacity:1"
       d="M 155.71426,505.21933 C 169.48004,495.91259 249.96414,480.13267 262.107,492.27553 C 293.11885,523.28738 310.44574,550.99059 298.23964,600.83208 C 289.6682,635.83208 225.13015,689.75248 201.42856,690.93361 C 175.02311,692.24948 128.91303,646.30649 122.43871,616.12796 C 118.51767,597.85095 140.11636,513.83281 155.71426,505.21933 z "
       id="path4099"
       sodipodi:nodetypes="cssssc" />
    <path
       style="fill:#ffffff;fill-rule:evenodd;stroke:#000000;stroke-width:1px;stroke-linecap:butt;stroke-linejoin:miter;stroke-opacity:1"
       d="M 262.43871,492.60729 C 271.38152,458.42681 335.38801,420.78642 347.14286,419.50504 C 367.44304,417.29215 458.24166,443.95585 467.14286,453.79076 C 480.81649,468.89871 504.68926,548.29439 501.42857,568.07647 C 464.83284,584.82809 424.84273,634.87641 414.19906,650.09678 C 361.12898,624.40596 311.53084,611.1797 296.7244,608.24978 C 293.38204,578.85267 274.7091,519.21161 262.43871,492.60729 z "
       id="path4101"
       sodipodi:nodetypes="csscccc" />
    <path
       style="fill:url(#radialGradient4121);fill-rule:evenodd;stroke:#000000;stroke-width:1px;stroke-linecap:butt;stroke-linejoin:miter;stroke-opacity:1"
       d="M 349.51278,418.99654 C 339.41125,391.34361 339.41126,379.34805 334.86557,353.33662 C 400.52548,336.92164 468.2057,344.87659 525.27932,417.98638 C 513.66257,432.00225 508.10673,439.9572 472.24632,457.88741 C 442.9519,436.92675 384.36304,425.94134 349.51278,418.99654 z "
       id="path4106"
       sodipodi:nodetypes="ccccc" />
    <path
       style="fill:#ffffff;fill-rule:evenodd;stroke:#000000;stroke-width:1px;stroke-linecap:butt;stroke-linejoin:miter;stroke-opacity:1"
       d="M 148.9975,451.32142 C 149.12377,437.68436 206.19738,396.01557 212.13203,383.13612 C 272.61491,352.579 336.3808,353.33662 336.3808,353.33662 L 349.51278,418.49146 L 260.61936,491.72752 L 157.07872,504.35443 C 157.07872,504.35443 143.31539,483.14123 148.9975,451.32142 z "
       id="path4108"
       sodipodi:nodetypes="ccccccc" />
    <path
       sodipodi:type="arc"
       style="opacity:1;fill:none;fill-opacity:1;fill-rule:nonzero;stroke:#000000;stroke-width:6.08710575;stroke-linejoin:round;stroke-miterlimit:4;stroke-dasharray:none;stroke-opacity:1"
       id="path4123"
       sodipodi:cx="645.71429"
       sodipodi:cy="627.7193"
       sodipodi:rx="301.42856"
       sodipodi:ry="290.35715"
       d="M 375.2053,755.81634 A 301.42856,290.35715 0 1 1 375.39586,756.18906"
       sodipodi:start="2.68469"
       sodipodi:end="8.9664444"
       sodipodi:open="true"
       transform="matrix(0.9669318,0,0,0.984119,-270.07595,6.0403406)" />
    <path
       style="fill:#000000;fill-rule:evenodd;stroke:#000000;stroke-width:1px;stroke-linecap:butt;stroke-linejoin:miter;stroke-opacity:1"
       d="M 147.85714,451.6479 C 147.85714,451.6479 138.92857,450.93361 128.57143,440.21932 C 143.21429,421.64789 172.67857,397.71932 206.42857,377.36218 C 211.60714,385.57647 213.57143,380.93361 213.57143,380.93361 L 147.85714,451.6479 z "
       id="path5094"
       sodipodi:nodetypes="ccccc" />
    <path
       style="fill:#ffffff;fill-rule:evenodd;stroke:#000000;stroke-width:1px;stroke-linecap:butt;stroke-linejoin:miter;stroke-opacity:1"
       d="M 470,458.07647 C 515,437.54075 509.64285,436.46932 524.28571,417.36218 C 551.78571,427.54075 560,424.50504 560,424.50504 C 560,424.50504 596.96428,454.50504 612.85714,498.79075 C 628.75,543.07646 623.57143,601.6479 623.57143,601.6479 L 585,633.07647 C 585,633.07647 558.75,592.54076 501.42857,568.07647 C 497.67857,535.75504 491.42858,498.61218 470,458.07647 z "
       id="path6065"
       sodipodi:nodetypes="cccccccc" />
    <path
       style="fill:url(#radialGradient10926);fill-opacity:1;fill-rule:evenodd;stroke:#000000;stroke-width:1px;stroke-linecap:butt;stroke-linejoin:miter;stroke-opacity:1"
       d="M 501.42857,568.07647 C 501.42857,568.07647 456.78571,588.25504 413.57143,652.36218 C 423.21429,707.8979 429.64286,731.64789 434.28571,767.36218 C 491.78571,768.79075 533.75,764.32647 550.71429,752.36219 C 577.67857,703.25505 582.32143,689.86219 585,633.79076 C 555.53571,593.43362 501.42857,568.07647 501.42857,568.07647 z "
       id="path6067"
       sodipodi:nodetypes="cccccc" />
    <path
       style="fill:#ffffff;fill-opacity:1;fill-rule:evenodd;stroke:#000000;stroke-width:1;stroke-linecap:butt;stroke-linejoin:miter;stroke-miterlimit:4;stroke-dasharray:none;stroke-opacity:1"
       d="M 549.28571,753.79075 C 549.28571,753.79075 558.57143,773.96932 555.71429,818.79075 C 563.57143,806.46932 571.07143,809.68361 577.85714,807.36218 C 654.64285,710.75504 642.85714,629.50504 642.85714,629.50504 L 624.28571,603.07647 C 624.28571,603.07647 608.75,616.82647 585,634.50504 C 589.10714,681.46932 549.28571,753.79075 549.28571,753.79075 z "
       id="path8007"
       sodipodi:nodetypes="ccccccc" />
    <path
       style="fill:url(#radialGradient9949);fill-rule:evenodd;stroke:#000000;stroke-width:1px;stroke-linecap:butt;stroke-linejoin:miter;stroke-opacity:1"
       d="M 612.14286,494.50504 C 648.75,554.86219 643.57143,630.21933 643.57143,630.21933 L 622.85714,600.21932 C 622.85714,600.21932 629.10714,544.14789 612.14286,494.50504 z "
       id="path9947"
       sodipodi:nodetypes="cccc" />
    <path
       style="fill:url(#radialGradient12874);fill-rule:evenodd;stroke:#000000;stroke-width:1px;stroke-linecap:butt;stroke-linejoin:miter;stroke-opacity:1"
       d="M 554.57375,816.99664 C 554.57375,816.99664 516.18795,839.72507 466.69048,884.67686 C 532.3504,857.90782 558.8669,831.39131 574.7768,810.93572 C 568.96842,804.62227 554.57375,816.99664 554.57375,816.99664 z "
       id="path12872"
       sodipodi:nodetypes="cccc" />
    <path
       style="fill:#ffffff;fill-rule:evenodd;stroke:#000000;stroke-width:1px;stroke-linecap:butt;stroke-linejoin:miter;stroke-opacity:1"
       d="M 548.51283,753.86211 C 559.11943,778.98966 556.08898,817.50172 556.08898,817.50172 C 556.08898,817.50172 502.42462,847.93256 466.1854,884.67686 C 427.92587,906.26887 426.66318,901.72319 403.05087,903.86976 C 379.43855,898.94527 385.87828,900.71304 371.73614,893.26316 C 362.13969,875.20668 354.94235,861.56962 350.52293,839.72507 C 405.70252,800.20285 425.7793,784.92429 434.87067,767.49916 C 479.31738,769.26693 514.67272,769.14067 548.51283,753.86211 z "
       id="path12876"
       sodipodi:nodetypes="cccccccc" />
    <path
       style="fill:url(#radialGradient12888);fill-opacity:1;fill-rule:evenodd;stroke:#000000;stroke-width:1px;stroke-linecap:butt;stroke-linejoin:miter;stroke-opacity:1"
       d="M 233.85031,800.8342 C 290.92393,826.59309 313.27356,826.46682 349.51278,839.72507 C 357.46773,875.71175 372.74629,894.2733 372.74629,894.2733 C 372.74629,894.2733 331.26378,911.41308 271.73103,896.29361 C 227.20924,884.98646 206.44993,863.08485 189.90868,841.74538 C 210.74308,824.9516 225.26401,811.94588 233.85031,800.8342 z "
       id="path12878"
       sodipodi:nodetypes="cccscc" />
    <path
       style="fill:#ffffff;fill-rule:evenodd;stroke:#000000;stroke-width:1px;stroke-linecap:butt;stroke-linejoin:miter;stroke-opacity:1"
       d="M 295.71429,606.6479 C 360,618.79076 412.85714,648.82665 412.85714,648.82665 C 412.85714,648.82665 426.15808,719.29584 435.80094,765.72441 C 412.58666,803.58155 405.80095,807.03042 350.08666,840.60185 C 300.08666,825.60185 234.28571,802.36218 234.28571,802.36218 C 234.28571,802.36218 201.78822,761.57697 193.18891,690.51519 C 237.11748,661.58662 275.71429,647.36219 295.71429,606.6479 z "
       id="path12890"
       sodipodi:nodetypes="ccccccc" />
    <path
       style="fill:#ffffff;fill-rule:evenodd;stroke:#000000;stroke-width:1px;stroke-linecap:butt;stroke-linejoin:miter;stroke-opacity:1"
       d="M 192.85714,690.93361 C 155.35714,672.71933 124.28571,626.6479 124.28571,626.6479 C 124.28571,626.6479 91.785713,638.43361 85.714286,662.36218 C 87.03082,708.71461 86.046048,730.09678 86.046048,730.09678 C 86.046048,730.09678 94.581586,759.72911 132.28028,803.28567 C 158.70885,816.8571 162.52538,817.59678 191.09681,841.52535 C 228.23967,816.88249 234.12727,801.8571 234.12727,801.8571 C 234.12727,801.8571 207.5,760.57647 192.85714,690.93361 z "
       id="path12892"
       sodipodi:nodetypes="cccccccc" />
    <path
       style="fill:url(#radialGradient12902);fill-opacity:1;fill-rule:evenodd;stroke:#000000;stroke-width:1px;stroke-linecap:butt;stroke-linejoin:miter;stroke-opacity:1"
       d="M 84.285714,660.93361 L 69.754896,673.11237 L 87.142857,739.50504 L 84.285714,660.93361 z "
       id="path12894"
       sodipodi:nodetypes="cccc" />
  </g>
</svg>
